<?xml version="1.0" encoding="utf-8"?>
<!-- Generator: Adobe Illustrator 16.0.0, SVG Export Plug-In . SVG Version: 6.00 Build 0)  -->
<!DOCTYPE svg PUBLIC "-//W3C//DTD SVG 1.1//EN" "http://www.w3.org/Graphics/SVG/1.1/DTD/svg11.dtd">
<svg version="1.1" id="Layer_1" xmlns="http://www.w3.org/2000/svg" xmlns:xlink="http://www.w3.org/1999/xlink" x="0px" y="0px"
	 width="248.466px" height="353.564px" viewBox="0 0 248.466 353.564" enable-background="new 0 0 248.466 353.564"
	 xml:space="preserve">
<line fill="none" stroke="#000000" stroke-width="0.3" stroke-linecap="round" stroke-linejoin="round" x1="63.056" y1="155.458" x2="64.162" y2="157.584"/>
<line fill="none" stroke="#000000" stroke-width="0.3" stroke-linecap="round" stroke-linejoin="round" x1="63.056" y1="155.458" x2="75.816" y2="179.982"/>
<line fill="none" stroke="#000000" stroke-width="0.3" stroke-linecap="round" stroke-linejoin="round" x1="42.546" y1="192.982" x2="69.316" y2="217.571"/>
<line fill="none" stroke="#000000" stroke-width="0.3" stroke-linecap="round" stroke-linejoin="round" x1="63.056" y1="155.458" x2="63.056" y2="155.458"/>
<line fill="none" stroke="#000000" stroke-width="0.3" stroke-linecap="round" stroke-linejoin="round" x1="57.726" y1="145.215" x2="63.056" y2="155.458"/>
<line fill="none" stroke="#000000" stroke-width="0.3" stroke-linecap="round" stroke-linejoin="round" x1="75.816" y1="179.982" x2="69.316" y2="217.571"/>
<line fill="none" stroke="#000000" stroke-width="0.3" stroke-linecap="round" stroke-linejoin="round" x1="42.546" y1="192.982" x2="75.816" y2="179.982"/>
<line fill="none" stroke="#000000" stroke-width="0.3" stroke-linecap="round" stroke-linejoin="round" x1="65.801" y1="153.262" x2="65.693" y2="153.547"/>
<line fill="none" stroke="#000000" stroke-width="0.3" stroke-linecap="round" stroke-linejoin="round" x1="75.816" y1="179.982" x2="90.316" y2="213.86"/>
<line fill="none" stroke="#000000" stroke-width="0.3" stroke-linecap="round" stroke-linejoin="round" x1="90.316" y1="213.86" x2="69.316" y2="217.571"/>
<line fill="none" stroke="#000000" stroke-width="0.3" stroke-linecap="round" stroke-linejoin="round" x1="90.316" y1="213.86" x2="96.816" y2="228.414"/>
<line fill="none" stroke="#000000" stroke-width="0.3" stroke-linecap="round" stroke-linejoin="round" x1="52.508" y1="175.364" x2="75.816" y2="179.982"/>
<line fill="none" stroke="#000000" stroke-width="0.3" stroke-linecap="round" stroke-linejoin="round" x1="64.162" y1="157.584" x2="65.693" y2="153.547"/>
<polyline fill="none" stroke="#000000" stroke-width="0.3" stroke-linecap="round" stroke-linejoin="round" points="65.693,153.547 
	65.874,153.416 65.801,153.262 "/>
<line fill="none" stroke="#000000" stroke-width="0.3" stroke-linecap="round" stroke-linejoin="round" x1="75.816" y1="179.982" x2="64.162" y2="157.584"/>
<line fill="none" stroke="#000000" stroke-width="0.3" stroke-linecap="round" stroke-linejoin="round" x1="57.726" y1="145.215" x2="63.056" y2="155.458"/>
<line fill="none" stroke="#000000" stroke-width="0.3" stroke-linecap="round" stroke-linejoin="round" x1="75.816" y1="126.85" x2="65.801" y2="153.262"/>
<line fill="none" stroke="#000000" stroke-width="0.3" stroke-linecap="round" stroke-linejoin="round" x1="75.816" y1="126.85" x2="75.816" y2="179.982"/>
<line fill="none" stroke="#000000" stroke-width="0.3" stroke-linecap="round" stroke-linejoin="round" x1="75.816" y1="126.85" x2="60.616" y2="142.281"/>
<line fill="none" stroke="#000000" stroke-width="0.3" stroke-linecap="round" stroke-linejoin="round" x1="57.726" y1="145.215" x2="60.616" y2="142.281"/>
<line fill="none" stroke="#000000" stroke-width="0.3" stroke-linecap="round" stroke-linejoin="round" x1="152.816" y1="206.232" x2="90.316" y2="213.86"/>
<line fill="none" stroke="#000000" stroke-width="0.3" stroke-linecap="round" stroke-linejoin="round" x1="75.816" y1="287.414" x2="69.316" y2="269.648"/>
<line fill="none" stroke="#000000" stroke-width="0.3" stroke-linecap="round" stroke-linejoin="round" x1="59.816" y1="285.088" x2="59.816" y2="267.414"/>
<line fill="none" stroke="#000000" stroke-width="0.3" stroke-linecap="round" stroke-linejoin="round" x1="87.481" y1="244.664" x2="71.311" y2="246.504"/>
<line fill="none" stroke="#000000" stroke-width="0.3" stroke-linecap="round" stroke-linejoin="round" x1="59.816" y1="285.088" x2="69.316" y2="269.648"/>
<line fill="none" stroke="#000000" stroke-width="0.3" stroke-linecap="round" stroke-linejoin="round" x1="75.816" y1="287.414" x2="59.816" y2="285.088"/>
<line fill="none" stroke="#000000" stroke-width="0.3" stroke-linecap="round" stroke-linejoin="round" x1="87.481" y1="244.664" x2="69.316" y2="217.571"/>
<line fill="none" stroke="#000000" stroke-width="0.3" stroke-linecap="round" stroke-linejoin="round" x1="132.544" y1="262.607" x2="96.816" y2="228.414"/>
<line fill="none" stroke="#000000" stroke-width="0.3" stroke-linecap="round" stroke-linejoin="round" x1="69.316" y1="217.571" x2="96.816" y2="228.414"/>
<line fill="none" stroke="#000000" stroke-width="0.3" stroke-linecap="round" stroke-linejoin="round" x1="152.816" y1="206.232" x2="96.816" y2="228.414"/>
<line fill="none" stroke="#000000" stroke-width="0.3" stroke-linecap="round" stroke-linejoin="round" x1="132.544" y1="262.607" x2="87.481" y2="244.664"/>
<line fill="none" stroke="#000000" stroke-width="0.3" stroke-linecap="round" stroke-linejoin="round" x1="87.481" y1="244.664" x2="96.816" y2="228.414"/>
<line fill="none" stroke="#000000" stroke-width="0.3" stroke-linecap="round" stroke-linejoin="round" x1="41.481" y1="267.414" x2="54.816" y2="248.914"/>
<line fill="none" stroke="#000000" stroke-width="0.3" stroke-linecap="round" stroke-linejoin="round" x1="54.816" y1="248.914" x2="69.316" y2="269.648"/>
<line fill="none" stroke="#000000" stroke-width="0.3" stroke-linecap="round" stroke-linejoin="round" x1="59.816" y1="267.414" x2="50.136" y2="260.58"/>
<line fill="none" stroke="#000000" stroke-width="0.3" stroke-linecap="round" stroke-linejoin="round" x1="71.311" y1="246.504" x2="69.316" y2="269.648"/>
<line fill="none" stroke="#000000" stroke-width="0.3" stroke-linecap="round" stroke-linejoin="round" x1="69.316" y1="269.648" x2="59.816" y2="267.414"/>
<line fill="none" stroke="#000000" stroke-width="0.3" stroke-linecap="round" stroke-linejoin="round" x1="69.316" y1="217.571" x2="71.311" y2="246.504"/>
<line fill="none" stroke="#000000" stroke-width="0.3" stroke-linecap="round" stroke-linejoin="round" x1="48.546" y1="221.409" x2="71.311" y2="246.504"/>
<line fill="none" stroke="#000000" stroke-width="0.3" stroke-linecap="round" stroke-linejoin="round" x1="41.481" y1="267.414" x2="50.136" y2="260.58"/>
<line fill="none" stroke="#000000" stroke-width="0.3" stroke-linecap="round" stroke-linejoin="round" x1="41.481" y1="267.414" x2="59.816" y2="267.414"/>
<line fill="none" stroke="#000000" stroke-width="0.3" stroke-linecap="round" stroke-linejoin="round" x1="55.414" y1="271.881" x2="59.816" y2="267.414"/>
<line fill="none" stroke="#000000" stroke-width="0.3" stroke-linecap="round" stroke-linejoin="round" x1="69.316" y1="269.648" x2="50.136" y2="260.58"/>
<line fill="none" stroke="#000000" stroke-width="0.3" stroke-linecap="round" stroke-linejoin="round" x1="54.816" y1="248.914" x2="50.136" y2="260.58"/>
<line fill="none" stroke="#000000" stroke-width="0.3" stroke-linecap="round" stroke-linejoin="round" x1="48.546" y1="221.409" x2="69.316" y2="217.571"/>
<line fill="none" stroke="#000000" stroke-width="0.3" stroke-linecap="round" stroke-linejoin="round" x1="87.481" y1="244.664" x2="69.316" y2="269.648"/>
<line fill="none" stroke="#000000" stroke-width="0.3" stroke-linecap="round" stroke-linejoin="round" x1="152.816" y1="206.232" x2="184.816" y2="235.414"/>
<line fill="none" stroke="#000000" stroke-width="0.3" stroke-linecap="round" stroke-linejoin="round" x1="184.816" y1="235.414" x2="155.937" y2="267.414"/>
<line fill="none" stroke="#000000" stroke-width="0.3" stroke-linecap="round" stroke-linejoin="round" x1="184.816" y1="235.414" x2="160.066" y2="248.914"/>
<line fill="none" stroke="#000000" stroke-width="0.3" stroke-linecap="round" stroke-linejoin="round" x1="155.937" y1="267.414" x2="160.066" y2="248.914"/>
<line fill="none" stroke="#000000" stroke-width="0.3" stroke-linecap="round" stroke-linejoin="round" x1="155.937" y1="267.414" x2="132.544" y2="262.607"/>
<line fill="none" stroke="#000000" stroke-width="0.3" stroke-linecap="round" stroke-linejoin="round" x1="140.816" y1="284.08" x2="87.481" y2="301.414"/>
<line fill="none" stroke="#000000" stroke-width="0.3" stroke-linecap="round" stroke-linejoin="round" x1="75.816" y1="287.414" x2="71.311" y2="302.6"/>
<line fill="none" stroke="#000000" stroke-width="0.3" stroke-linecap="round" stroke-linejoin="round" x1="169.816" y1="261.914" x2="155.937" y2="267.414"/>
<line fill="none" stroke="#000000" stroke-width="0.3" stroke-linecap="round" stroke-linejoin="round" x1="39.636" y1="258.184" x2="43.741" y2="251.557"/>
<line fill="none" stroke="#000000" stroke-width="0.3" stroke-linecap="round" stroke-linejoin="round" x1="152.816" y1="206.232" x2="160.066" y2="248.914"/>
<line fill="none" stroke="#000000" stroke-width="0.3" stroke-linecap="round" stroke-linejoin="round" x1="43.741" y1="251.557" x2="54.816" y2="248.914"/>
<line fill="none" stroke="#000000" stroke-width="0.3" stroke-linecap="round" stroke-linejoin="round" x1="160.066" y1="248.914" x2="132.544" y2="262.607"/>
<line fill="none" stroke="#000000" stroke-width="0.3" stroke-linecap="round" stroke-linejoin="round" x1="152.816" y1="206.232" x2="132.544" y2="262.607"/>
<path fill="none" stroke="#000000" stroke-width="0.3" stroke-linecap="round" stroke-linejoin="round" d="M161.066,353.414
	c0,0-6.236-67.137-20.25-69.334"/>
<line fill="none" stroke="#000000" stroke-width="0.3" stroke-linecap="round" stroke-linejoin="round" x1="69.856" y1="51.752" x2="81.816" y2="99.982"/>
<line fill="none" stroke="#000000" stroke-width="0.3" stroke-linecap="round" stroke-linejoin="round" x1="135.316" y1="149.413" x2="117.816" y2="159.482"/>
<line fill="none" stroke="#000000" stroke-width="0.3" stroke-linecap="round" stroke-linejoin="round" x1="94.044" y1="134.149" x2="92.736" y2="162.599"/>
<line fill="none" stroke="#000000" stroke-width="0.3" stroke-linecap="round" stroke-linejoin="round" x1="81.816" y1="99.982" x2="94.044" y2="134.149"/>
<line fill="none" stroke="#000000" stroke-width="0.3" stroke-linecap="round" stroke-linejoin="round" x1="92.736" y1="59.213" x2="135.316" y2="149.413"/>
<line fill="none" stroke="#000000" stroke-width="0.3" stroke-linecap="round" stroke-linejoin="round" x1="54.816" y1="0.15" x2="69.856" y2="51.752"/>
<line fill="none" stroke="#000000" stroke-width="0.3" stroke-linecap="round" stroke-linejoin="round" x1="184.816" y1="235.414" x2="169.816" y2="261.914"/>
<line fill="none" stroke="#000000" stroke-width="0.3" stroke-linecap="round" stroke-linejoin="round" x1="92.736" y1="162.599" x2="112.272" y2="185.362"/>
<line fill="none" stroke="#000000" stroke-width="0.3" stroke-linecap="round" stroke-linejoin="round" x1="39.636" y1="258.184" x2="54.816" y2="248.914"/>
<line fill="none" stroke="#000000" stroke-width="0.3" stroke-linecap="round" stroke-linejoin="round" x1="184.816" y1="235.414" x2="176.846" y2="335.914"/>
<line fill="none" stroke="#000000" stroke-width="0.3" stroke-linecap="round" stroke-linejoin="round" x1="184.816" y1="235.414" x2="248.316" y2="296.803"/>
<line fill="none" stroke="#000000" stroke-width="0.3" stroke-linecap="round" stroke-linejoin="round" x1="184.816" y1="235.414" x2="186.816" y2="228.414"/>
<line fill="none" stroke="#000000" stroke-width="0.3" stroke-linecap="round" stroke-linejoin="round" x1="33.448" y1="246.504" x2="28.816" y2="240.414"/>
<line fill="none" stroke="#000000" stroke-width="0.3" stroke-linecap="round" stroke-linejoin="round" x1="52.508" y1="175.364" x2="54.935" y2="161.34"/>
<line fill="none" stroke="#000000" stroke-width="0.3" stroke-linecap="round" stroke-linejoin="round" x1="52.941" y1="131.1" x2="49.093" y2="126.605"/>
<line fill="none" stroke="#000000" stroke-width="0.3" stroke-linecap="round" stroke-linejoin="round" x1="35.816" y1="213.86" x2="42.546" y2="192.982"/>
<line fill="none" stroke="#000000" stroke-width="0.3" stroke-linecap="round" stroke-linejoin="round" x1="48.546" y1="221.409" x2="42.546" y2="192.982"/>
<line fill="none" stroke="#000000" stroke-width="0.3" stroke-linecap="round" stroke-linejoin="round" x1="48.546" y1="221.409" x2="35.816" y2="213.86"/>
<line fill="none" stroke="#000000" stroke-width="0.3" stroke-linecap="round" stroke-linejoin="round" x1="54.945" y1="135.311" x2="56.941" y2="134.501"/>
<line fill="none" stroke="#000000" stroke-width="0.3" stroke-linecap="round" stroke-linejoin="round" x1="52.941" y1="131.1" x2="53.068" y2="130.992"/>
<path fill="none" stroke="#000000" stroke-width="0.3" stroke-linecap="round" stroke-linejoin="round" d="M52.069,124.183
	c0.003,2.702,0.454,5.009,0.999,6.81"/>
<path fill="none" stroke="#000000" stroke-width="0.3" stroke-linecap="round" stroke-linejoin="round" d="M53.289,131.68
	c-0.075-0.221-0.148-0.449-0.221-0.688"/>
<line fill="none" stroke="#000000" stroke-width="0.3" stroke-linecap="round" stroke-linejoin="round" x1="32.15" y1="199.482" x2="42.546" y2="192.982"/>
<line fill="none" stroke="#000000" stroke-width="0.3" stroke-linecap="round" stroke-linejoin="round" x1="15.417" y1="210.981" x2="32.15" y2="199.482"/>
<line fill="none" stroke="#000000" stroke-width="0.3" stroke-linecap="round" stroke-linejoin="round" x1="54.816" y1="248.914" x2="48.546" y2="221.409"/>
<line fill="none" stroke="#000000" stroke-width="0.3" stroke-linecap="round" stroke-linejoin="round" x1="39.636" y1="240.414" x2="48.546" y2="221.409"/>
<line fill="none" stroke="#000000" stroke-width="0.3" stroke-linecap="round" stroke-linejoin="round" x1="54.816" y1="248.914" x2="39.636" y2="240.414"/>
<line fill="none" stroke="#000000" stroke-width="0.3" stroke-linecap="round" stroke-linejoin="round" x1="31.08" y1="213.86" x2="32.15" y2="199.482"/>
<line fill="none" stroke="#000000" stroke-width="0.3" stroke-linecap="round" stroke-linejoin="round" x1="28.816" y1="240.414" x2="31.08" y2="221.409"/>
<line fill="none" stroke="#000000" stroke-width="0.3" stroke-linecap="round" stroke-linejoin="round" x1="32.15" y1="199.482" x2="40.916" y2="171.496"/>
<line fill="none" stroke="#000000" stroke-width="0.3" stroke-linecap="round" stroke-linejoin="round" x1="35.816" y1="213.86" x2="31.08" y2="213.86"/>
<line fill="none" stroke="#000000" stroke-width="0.3" stroke-linecap="round" stroke-linejoin="round" x1="42.546" y1="166.291" x2="42.546" y2="170.315"/>
<line fill="none" stroke="#000000" stroke-width="0.3" stroke-linecap="round" stroke-linejoin="round" x1="35.816" y1="213.86" x2="32.15" y2="199.482"/>
<line fill="none" stroke="#000000" stroke-width="0.3" stroke-linecap="round" stroke-linejoin="round" x1="25.084" y1="168.239" x2="37.348" y2="151.89"/>
<line fill="none" stroke="#000000" stroke-width="0.3" stroke-linecap="round" stroke-linejoin="round" x1="54.816" y1="248.914" x2="71.311" y2="246.504"/>
<line fill="none" stroke="#000000" stroke-width="0.3" stroke-linecap="round" stroke-linejoin="round" x1="28.816" y1="240.414" x2="48.546" y2="221.409"/>
<line fill="none" stroke="#000000" stroke-width="0.3" stroke-linecap="round" stroke-linejoin="round" x1="15.417" y1="210.981" x2="31.08" y2="213.86"/>
<line fill="none" stroke="#000000" stroke-width="0.3" stroke-linecap="round" stroke-linejoin="round" x1="31.08" y1="221.409" x2="48.546" y2="221.409"/>
<line fill="none" stroke="#000000" stroke-width="0.3" stroke-linecap="round" stroke-linejoin="round" x1="28.816" y1="240.414" x2="39.636" y2="240.414"/>
<line fill="none" stroke="#000000" stroke-width="0.3" stroke-linecap="round" stroke-linejoin="round" x1="31.08" y1="221.409" x2="31.08" y2="213.86"/>
<line fill="none" stroke="#000000" stroke-width="0.3" stroke-linecap="round" stroke-linejoin="round" x1="31.08" y1="221.409" x2="35.816" y2="213.86"/>
<line fill="none" stroke="#000000" stroke-width="0.3" stroke-linecap="round" stroke-linejoin="round" x1="28.816" y1="240.414" x2="54.816" y2="248.914"/>
<line fill="none" stroke="#000000" stroke-width="0.3" stroke-linecap="round" stroke-linejoin="round" x1="41.481" y1="267.414" x2="55.414" y2="271.881"/>
<line fill="none" stroke="#000000" stroke-width="0.3" stroke-linecap="round" stroke-linejoin="round" x1="55.414" y1="271.881" x2="59.816" y2="285.088"/>
<polyline fill="none" stroke="#000000" stroke-width="0.3" stroke-linecap="round" stroke-linejoin="round" points="59.816,285.088 
	63.816,297.088 71.311,302.6 "/>
<line fill="none" stroke="#000000" stroke-width="0.3" stroke-linecap="round" stroke-linejoin="round" x1="33.448" y1="246.504" x2="54.816" y2="248.914"/>
<line fill="none" stroke="#000000" stroke-width="0.3" stroke-linecap="round" stroke-linejoin="round" x1="39.636" y1="258.184" x2="41.481" y2="267.414"/>
<line fill="none" stroke="#000000" stroke-width="0.3" stroke-linecap="round" stroke-linejoin="round" x1="33.448" y1="246.504" x2="43.741" y2="251.557"/>
<line fill="none" stroke="#000000" stroke-width="0.3" stroke-linecap="round" stroke-linejoin="round" x1="0.15" y1="201.482" x2="32.15" y2="199.482"/>
<line fill="none" stroke="#000000" stroke-width="0.3" stroke-linecap="round" stroke-linejoin="round" x1="25.084" y1="168.239" x2="32.15" y2="199.482"/>
<line fill="none" stroke="#000000" stroke-width="0.3" stroke-linecap="round" stroke-linejoin="round" x1="87.481" y1="301.414" x2="71.311" y2="302.6"/>
<line fill="none" stroke="#000000" stroke-width="0.3" stroke-linecap="round" stroke-linejoin="round" x1="15.417" y1="210.981" x2="15.417" y2="217.571"/>
<line fill="none" stroke="#000000" stroke-width="0.3" stroke-linecap="round" stroke-linejoin="round" x1="0.15" y1="201.482" x2="25.084" y2="168.239"/>
<line fill="none" stroke="#000000" stroke-width="0.3" stroke-linecap="round" stroke-linejoin="round" x1="31.08" y1="221.409" x2="15.417" y2="210.981"/>
<polyline fill="none" stroke="#000000" stroke-width="0.3" stroke-linecap="round" stroke-linejoin="round" points="42.546,166.291 
	48.127,137.519 37.348,151.89 "/>
<polyline fill="none" stroke="#000000" stroke-width="0.3" stroke-linecap="round" stroke-linejoin="round" points="37.348,151.89 
	37.348,151.89 37.348,151.89 "/>
<line fill="none" stroke="#000000" stroke-width="0.3" stroke-linecap="round" stroke-linejoin="round" x1="31.08" y1="221.409" x2="15.417" y2="217.571"/>
<line fill="none" stroke="#000000" stroke-width="0.3" stroke-linecap="round" stroke-linejoin="round" x1="2.316" y1="210.149" x2="15.417" y2="217.571"/>
<line fill="none" stroke="#000000" stroke-width="0.3" stroke-linecap="round" stroke-linejoin="round" x1="0.15" y1="201.482" x2="15.417" y2="210.981"/>
<line fill="none" stroke="#000000" stroke-width="0.3" stroke-linecap="round" stroke-linejoin="round" x1="0.15" y1="201.482" x2="2.316" y2="210.149"/>
<line fill="none" stroke="#000000" stroke-width="0.3" stroke-linecap="round" stroke-linejoin="round" x1="15.417" y1="210.981" x2="2.316" y2="210.149"/>
<line fill="none" stroke="#000000" stroke-width="0.3" stroke-linecap="round" stroke-linejoin="round" x1="0.15" y1="201.482" x2="37.348" y2="151.89"/>
<line fill="none" stroke="#000000" stroke-width="0.3" stroke-linecap="round" stroke-linejoin="round" x1="135.316" y1="149.413" x2="92.736" y2="162.599"/>
<line fill="none" stroke="#000000" stroke-width="0.3" stroke-linecap="round" stroke-linejoin="round" x1="117.816" y1="159.482" x2="92.736" y2="162.599"/>
<line fill="none" stroke="#000000" stroke-width="0.3" stroke-linecap="round" stroke-linejoin="round" x1="87.481" y1="301.414" x2="75.816" y2="287.414"/>
<line fill="none" stroke="#000000" stroke-width="0.3" stroke-linecap="round" stroke-linejoin="round" x1="135.316" y1="149.413" x2="94.044" y2="134.149"/>
<line fill="none" stroke="#000000" stroke-width="0.3" stroke-linecap="round" stroke-linejoin="round" x1="117.816" y1="159.482" x2="112.272" y2="185.362"/>
<line fill="none" stroke="#000000" stroke-width="0.3" stroke-linecap="round" stroke-linejoin="round" x1="152.816" y1="206.232" x2="112.272" y2="185.362"/>
<line fill="none" stroke="#000000" stroke-width="0.3" stroke-linecap="round" stroke-linejoin="round" x1="117.816" y1="159.482" x2="152.816" y2="206.232"/>
<line fill="none" stroke="#000000" stroke-width="0.3" stroke-linecap="round" stroke-linejoin="round" x1="54.816" y1="0.15" x2="32.15" y2="106.816"/>
<line fill="none" stroke="#000000" stroke-width="0.3" stroke-linecap="round" stroke-linejoin="round" x1="32.15" y1="106.816" x2="38.15" y2="134.149"/>
<line fill="none" stroke="#000000" stroke-width="0.3" stroke-linecap="round" stroke-linejoin="round" x1="38.15" y1="134.149" x2="0.15" y2="201.482"/>
<line fill="none" stroke="#000000" stroke-width="0.3" stroke-linecap="round" stroke-linejoin="round" x1="92.736" y1="59.213" x2="69.856" y2="51.752"/>
<line fill="none" stroke="#000000" stroke-width="0.3" stroke-linecap="round" stroke-linejoin="round" x1="92.736" y1="59.213" x2="54.816" y2="0.15"/>
<line fill="none" stroke="#000000" stroke-width="0.3" stroke-linecap="round" stroke-linejoin="round" x1="135.316" y1="149.413" x2="69.856" y2="51.752"/>
<line fill="none" stroke="#000000" stroke-width="0.3" stroke-linecap="round" stroke-linejoin="round" x1="135.316" y1="149.413" x2="81.816" y2="99.982"/>
<line fill="none" stroke="#000000" stroke-width="0.3" stroke-linecap="round" stroke-linejoin="round" x1="87.481" y1="301.414" x2="155.937" y2="267.414"/>
<line fill="none" stroke="#000000" stroke-width="0.3" stroke-linecap="round" stroke-linejoin="round" x1="87.481" y1="301.414" x2="132.544" y2="262.607"/>
<line fill="none" stroke="#000000" stroke-width="0.3" stroke-linecap="round" stroke-linejoin="round" x1="140.816" y1="284.08" x2="169.816" y2="261.914"/>
<line fill="none" stroke="#000000" stroke-width="0.3" stroke-linecap="round" stroke-linejoin="round" x1="161.066" y1="353.414" x2="169.816" y2="261.914"/>
<line fill="none" stroke="#000000" stroke-width="0.3" stroke-linecap="round" stroke-linejoin="round" x1="87.481" y1="301.414" x2="87.481" y2="244.664"/>
<line fill="none" stroke="#000000" stroke-width="0.3" stroke-linecap="round" stroke-linejoin="round" x1="135.316" y1="149.413" x2="152.816" y2="206.232"/>
<line fill="none" stroke="#000000" stroke-width="0.3" stroke-linecap="round" stroke-linejoin="round" x1="75.816" y1="287.414" x2="87.481" y2="244.664"/>
<line fill="none" stroke="#000000" stroke-width="0.3" stroke-linecap="round" stroke-linejoin="round" x1="135.316" y1="149.413" x2="184.816" y2="235.414"/>
<line fill="none" stroke="#000000" stroke-width="0.3" stroke-linecap="round" stroke-linejoin="round" x1="135.316" y1="149.413" x2="186.816" y2="228.414"/>
<path fill="none" stroke="#000000" stroke-width="0.3" stroke-linecap="round" stroke-linejoin="round" d="M176.846,335.914
	c33.471-40.5,47.471,6,71.471-39.111"/>
<line fill="none" stroke="#000000" stroke-width="0.3" stroke-linecap="round" stroke-linejoin="round" x1="248.316" y1="296.803" x2="186.816" y2="228.414"/>
<path fill="none" stroke="#000000" stroke-width="0.3" stroke-linecap="round" stroke-linejoin="round" d="M161.066,353.414
	c0,0,8.309-4,15.779-17.5"/>
<line fill="none" stroke="#000000" stroke-width="0.3" stroke-linecap="round" stroke-linejoin="round" x1="52.941" y1="98.362" x2="64.941" y2="93.482"/>
<line fill="none" stroke="#000000" stroke-width="0.3" stroke-linecap="round" stroke-linejoin="round" x1="112.272" y1="185.362" x2="90.316" y2="213.86"/>
<line fill="none" stroke="#000000" stroke-width="0.3" stroke-linecap="round" stroke-linejoin="round" x1="60.741" y1="118.626" x2="64.941" y2="120.917"/>
<line fill="none" stroke="#000000" stroke-width="0.3" stroke-linecap="round" stroke-linejoin="round" x1="52.941" y1="98.362" x2="52.943" y2="98.365"/>
<polyline fill="none" stroke="#000000" stroke-width="0.3" stroke-linecap="round" stroke-linejoin="round" points="52.943,98.365 
	64.941,120.917 64.941,120.917 "/>
<line fill="none" stroke="#000000" stroke-width="0.3" stroke-linecap="round" stroke-linejoin="round" x1="57.743" y1="134.177" x2="56.941" y2="134.501"/>
<line fill="none" stroke="#000000" stroke-width="0.3" stroke-linecap="round" stroke-linejoin="round" x1="75.816" y1="126.85" x2="64.941" y2="93.482"/>
<line fill="none" stroke="#000000" stroke-width="0.3" stroke-linecap="round" stroke-linejoin="round" x1="92.736" y1="162.599" x2="75.816" y2="126.85"/>
<line fill="none" stroke="#000000" stroke-width="0.3" stroke-linecap="round" stroke-linejoin="round" x1="75.816" y1="126.85" x2="64.941" y2="120.917"/>
<polyline fill="none" stroke="#000000" stroke-width="0.3" stroke-linecap="round" stroke-linejoin="round" points="52.943,98.365 
	52.942,98.362 64.941,93.482 "/>
<line fill="none" stroke="#000000" stroke-width="0.3" stroke-linecap="round" stroke-linejoin="round" x1="94.044" y1="134.149" x2="75.816" y2="126.85"/>
<line fill="none" stroke="#000000" stroke-width="0.3" stroke-linecap="round" stroke-linejoin="round" x1="92.736" y1="162.599" x2="75.816" y2="179.982"/>
<line fill="none" stroke="#000000" stroke-width="0.3" stroke-linecap="round" stroke-linejoin="round" x1="112.272" y1="185.362" x2="75.816" y2="179.982"/>
<line fill="none" stroke="#000000" stroke-width="0.3" stroke-linecap="round" stroke-linejoin="round" x1="69.856" y1="51.752" x2="64.941" y2="93.482"/>
<polyline fill="none" stroke="#000000" stroke-width="0.3" stroke-linecap="round" stroke-linejoin="round" points="52.941,98.362 
	52.941,98.362 32.15,106.816 "/>
<line fill="none" stroke="#000000" stroke-width="0.3" stroke-linecap="round" stroke-linejoin="round" x1="52.941" y1="98.362" x2="32.15" y2="106.816"/>
<line fill="none" stroke="#000000" stroke-width="0.3" stroke-linecap="round" stroke-linejoin="round" x1="32.15" y1="106.816" x2="69.856" y2="51.752"/>
<line fill="none" stroke="#000000" stroke-width="0.3" stroke-linecap="round" stroke-linejoin="round" x1="81.816" y1="99.982" x2="64.941" y2="93.482"/>
<line fill="none" stroke="#000000" stroke-width="0.3" stroke-linecap="round" stroke-linejoin="round" x1="75.816" y1="126.85" x2="57.743" y2="134.177"/>
<line fill="none" stroke="#000000" stroke-width="0.3" stroke-linecap="round" stroke-linejoin="round" x1="42.546" y1="166.291" x2="57.721" y2="145.219"/>
<line fill="none" stroke="#000000" stroke-width="0.3" stroke-linecap="round" stroke-linejoin="round" x1="57.726" y1="145.215" x2="54.935" y2="161.34"/>
<line fill="none" stroke="#000000" stroke-width="0.3" stroke-linecap="round" stroke-linejoin="round" x1="42.546" y1="166.291" x2="45.007" y2="168.532"/>
<line fill="none" stroke="#000000" stroke-width="0.3" stroke-linecap="round" stroke-linejoin="round" x1="42.546" y1="166.291" x2="57.726" y2="145.215"/>
<line fill="none" stroke="#000000" stroke-width="0.3" stroke-linecap="round" stroke-linejoin="round" x1="57.721" y1="145.219" x2="57.726" y2="145.215"/>
<line fill="none" stroke="#000000" stroke-width="0.3" stroke-linecap="round" stroke-linejoin="round" x1="42.546" y1="166.291" x2="40.916" y2="171.496"/>
<line fill="none" stroke="#000000" stroke-width="0.3" stroke-linecap="round" stroke-linejoin="round" x1="45.007" y1="168.532" x2="52.508" y2="175.364"/>
<line fill="none" stroke="#000000" stroke-width="0.3" stroke-linecap="round" stroke-linejoin="round" x1="42.546" y1="170.315" x2="42.546" y2="192.982"/>
<line fill="none" stroke="#000000" stroke-width="0.3" stroke-linecap="round" stroke-linejoin="round" x1="52.508" y1="175.364" x2="42.546" y2="192.982"/>
<line fill="none" stroke="#000000" stroke-width="0.3" stroke-linecap="round" stroke-linejoin="round" x1="32.15" y1="106.816" x2="49.093" y2="126.605"/>
<line fill="none" stroke="#000000" stroke-width="0.3" stroke-linecap="round" stroke-linejoin="round" x1="38.15" y1="134.149" x2="46.376" y2="132.453"/>
<path fill="none" stroke="#000000" stroke-width="0.3" stroke-linecap="round" stroke-linejoin="round" d="M54.945,135.311
	c0,0,0.488,6.779-3.931,11.186c0,0,2.067,2.503,6.707-1.277"/>
<path fill="none" stroke="#000000" stroke-width="0.3" stroke-linecap="round" stroke-linejoin="round" d="M60.741,118.626
	l-6.925-3.777c-1.294,3.442-1.751,6.59-1.748,9.333"/>
<line fill="none" stroke="#000000" stroke-width="0.3" stroke-linecap="round" stroke-linejoin="round" x1="42.546" y1="166.291" x2="53.289" y2="131.68"/>
<path fill="none" stroke="#000000" stroke-width="0.3" stroke-linecap="round" stroke-linejoin="round" d="M53.289,131.68
	c0.785,2.317,1.657,3.63,1.657,3.63"/>
<line fill="none" stroke="#000000" stroke-width="0.3" stroke-linecap="round" stroke-linejoin="round" x1="46.376" y1="132.453" x2="52.941" y2="131.1"/>
<line fill="none" stroke="#000000" stroke-width="0.3" stroke-linecap="round" stroke-linejoin="round" x1="37.348" y1="151.89" x2="52.941" y2="131.1"/>
</svg>
