<?xml version="1.0" encoding="utf-8"?>
<!-- Generator: Adobe Illustrator 16.0.0, SVG Export Plug-In . SVG Version: 6.00 Build 0)  -->
<!DOCTYPE svg PUBLIC "-//W3C//DTD SVG 1.1//EN" "http://www.w3.org/Graphics/SVG/1.1/DTD/svg11.dtd">
<svg version="1.1" id="Layer_1" xmlns="http://www.w3.org/2000/svg" xmlns:xlink="http://www.w3.org/1999/xlink" x="0px" y="0px"
	 width="248.166px" height="331.542px" viewBox="0 0 248.166 331.542" enable-background="new 0 0 248.166 331.542"
	 xml:space="preserve">
<g>
	<polygon fill="#FFC197" points="75.666,126.7 62.914,157.434 75.666,179.833 	"/>
	<polygon fill="#C68960" points="75.666,126.7 64.012,157.434 57.576,145.065 	"/>
	<polygon fill="#C68960" points="50.986,122.057 37.197,151.74 39.486,172.273 65.725,153.266 	"/>
	<polygon fill="#E0A780" points="54.666,124.93 42.396,166.141 59.576,140.81 	"/>
	<polygon fill="#FFC197" points="57.576,145.065 42.396,166.141 52.357,175.214 	"/>
	<polygon fill="#FFCFAB" points="57.576,145.065 52.357,175.214 75.666,179.833 	"/>
	<polygon fill="#C68960" points="64.791,93.333 75.666,126.7 63.756,126.7 52.792,98.212 	"/>
	<polygon fill="#896349" points="32,106.667 52.791,130.95 64.791,120.767 52.791,98.212 	"/>
	<polygon fill="#FFCFAB" points="63.666,55.333 54.666,0 32,106.667 	"/>
	<polygon fill="#896349" points="63.666,55.333 54.666,0 92.586,59.063 	"/>
	<polygon fill="#FFC197" points="32,106.667 64.791,93.333 63.666,55.333 	"/>
	<polygon fill="#E8B491" points="63.666,55.333 64.791,93.333 81.666,99.833 	"/>
	<path d="M54.795,135.161c0,0,0.488,6.779-3.931,11.186c0,0,2.069,2.506,6.712-1.281l18.09-18.365L54.795,135.161z"/>
	<path fill="#59402E" d="M54.795,135.161c0,0-4.629-14.961-1.129-20.461l22,12L54.795,135.161z"/>
	<polygon fill="#E8B491" points="32,106.667 52.791,130.95 38,134 	"/>
	<polygon fill="#FFCFAB" points="52.791,130.95 0,201.333 38,134 	"/>
	<polygon fill="#352D29" points="30.93,221.26 15.268,217.421 15.268,210.833 	"/>
	<polygon fill="#C68960" points="2.166,210 15.268,210.833 15.268,217.421 	"/>
	<polygon fill="#896349" points="15.268,210.833 30.93,213.71 30.93,221.26 	"/>
	<polygon fill="#E0A780" points="184.666,235.263 176.695,324.669 248.166,296.652 	"/>
	<polygon fill="#E0A780" points="81.666,99.833 63.666,55.333 135.166,149.263 	"/>
	<polygon fill="#C68960" points="92.586,59.063 63.666,55.333 135.166,149.263 	"/>
	<polygon fill="#C68960" points="169.666,261.763 184.666,235.263 176.695,324.669 	"/>
	<polygon fill="#C68960" points="184.666,235.263 186.666,228.263 248.166,296.652 	"/>
	<polygon fill="#FFCFAB" points="42.396,166.141 42.396,192.833 52.357,175.214 	"/>
	<polygon fill="#E0A780" points="15.268,210.833 32,199.333 30.93,213.71 	"/>
	<polygon fill="#C68960" points="32,199.333 35.666,213.71 30.93,213.71 	"/>
	<polygon fill="#896349" points="35.666,213.71 30.93,221.26 30.93,213.71 	"/>
	<polygon fill="#E8B491" points="0,201.333 2.166,210 15.268,210.833 	"/>
	<polygon fill="#FFCFAB" points="0,201.333 32,199.333 15.268,210.833 	"/>
	<polygon fill="#C68960" points="42.396,192.833 32,199.333 42.396,166.141 	"/>
	<polygon fill="#E0A780" points="42.396,192.833 48.396,221.26 69.166,217.421 	"/>
	<polygon fill="#E0A780" points="32,199.333 35.666,213.71 42.396,192.833 	"/>
	<polygon fill="#FFC197" points="35.666,213.71 48.396,221.26 42.396,192.833 	"/>
	<polygon fill="#281309" points="41.331,267.264 59.666,267.264 55.264,271.731 	"/>
	<polygon fill="#281309" points="59.666,284.938 59.666,267.264 55.264,271.731 	"/>
	<polygon fill="#3A271B" points="59.666,267.264 69.166,269.498 59.666,284.938 	"/>
	<polygon fill="#59402E" points="59.666,284.938 75.666,287.263 71.161,302.45 63.666,296.938 	"/>
	<polygon fill="#896349" points="75.666,287.263 87.331,301.264 71.161,302.45 	"/>
	<polygon fill="#C68960" points="69.166,269.498 75.666,287.263 59.666,284.938 	"/>
	<polygon fill="#161210" points="39.486,258.034 43.591,251.407 54.666,248.763 	"/>
	<polygon fill="#110B09" points="33.299,246.353 54.666,248.763 43.591,251.407 	"/>
	<polygon fill="#281309" points="39.486,258.034 41.331,267.264 54.666,248.763 	"/>
	<polygon fill="#281309" points="28.666,240.263 33.299,246.353 54.666,248.763 	"/>
	<polygon fill="#3A271B" points="28.666,240.263 39.486,240.263 54.666,248.763 	"/>
	<polygon fill="#3A271B" points="41.331,267.264 49.986,260.43 54.666,248.763 	"/>
	<polygon fill="#C68960" points="30.93,221.26 48.396,221.26 35.666,213.71 	"/>
	<polygon fill="#59402E" points="48.396,221.26 30.93,221.26 28.666,240.263 	"/>
	<polygon fill="#C68960" points="28.666,240.263 39.486,240.263 48.396,221.26 	"/>
	<polygon fill="#E0A780" points="48.396,221.26 39.486,240.263 54.666,248.763 	"/>
	<polygon fill="#FFCFAB" points="48.396,221.26 71.161,246.353 54.666,248.763 	"/>
	<polygon fill="#896349" points="49.986,260.43 59.666,267.264 41.331,267.264 	"/>
	<polygon fill="#E0A780" points="54.666,248.763 69.166,269.498 49.986,260.43 	"/>
	<polygon fill="#C68960" points="49.986,260.43 59.666,267.264 69.166,269.498 	"/>
	<polygon fill="#FFC197" points="71.161,246.353 69.166,269.498 54.666,248.763 	"/>
	<polygon fill="#59402E" points="155.787,267.264 184.666,235.263 169.666,261.763 	"/>
	<polygon fill="#3A271B" points="155.787,267.264 87.331,301.264 140.666,283.93 169.666,261.763 	"/>
	<polygon fill="#59402E" points="135.166,149.263 186.666,228.263 184.666,235.263 	"/>
	<polygon fill="#FFC197" points="117.666,159.333 152.666,206.083 135.166,149.263 	"/>
	<polygon fill="#C68960" points="135.166,149.263 152.666,206.083 184.666,235.263 	"/>
	<path fill="#59402E" d="M169.666,261.763l-5.369,69.778c0,0-9.616-45.415-23.631-47.611L169.666,261.763z"/>
	<polygon fill="#896349" points="164.297,331.542 176.695,324.669 169.666,261.763 	"/>
	<polygon fill="#896349" points="132.395,262.458 87.331,301.264 155.787,267.264 	"/>
	<polygon fill="#FFC197" points="48.396,221.26 71.161,246.353 69.166,217.421 	"/>
	<polygon fill="#E0A780" points="69.166,217.421 87.331,244.513 71.161,246.353 	"/>
	<polygon fill="#FFCFAB" points="87.331,244.513 75.666,287.263 69.166,269.498 	"/>
	<polygon fill="#E8B491" points="87.331,244.513 71.161,246.353 69.166,269.498 	"/>
	<polygon fill="#E8B491" points="87.331,244.513 87.331,301.264 132.395,262.458 	"/>
	<polygon fill="#FFC197" points="87.331,244.513 75.666,287.263 87.331,301.264 	"/>
	<polygon fill="#E8B491" points="87.331,244.513 96.666,228.263 69.166,217.421 	"/>
	<polygon fill="#E0A780" points="96.666,228.263 132.395,262.458 87.331,244.513 	"/>
	<polygon fill="#FFC197" points="96.666,228.263 90.166,213.71 69.166,217.421 	"/>
	<polygon fill="#FFC197" points="75.666,179.833 75.666,126.7 92.586,162.449 	"/>
	<polygon fill="#FFCFAB" points="75.666,179.833 112.123,185.212 92.586,162.449 	"/>
	<polygon fill="#E8B491" points="90.166,213.71 112.123,185.212 75.666,179.833 	"/>
	<polygon fill="#FFC197" points="96.666,228.263 152.666,206.083 132.395,262.458 	"/>
	<polygon fill="#FFC197" points="90.166,213.71 152.666,206.083 112.123,185.212 	"/>
	<polygon fill="#E8B491" points="90.166,213.71 96.666,228.263 152.666,206.083 	"/>
	<polygon fill="#FFCFAB" points="117.666,159.333 112.123,185.212 152.666,206.083 	"/>
	<polygon fill="#FFCFAB" points="75.666,126.7 93.895,134 92.586,162.449 	"/>
	<polygon fill="#FFC197" points="117.666,159.333 112.123,185.212 92.586,162.449 	"/>
	<polygon fill="#FFC197" points="135.166,149.263 93.895,134 81.666,99.833 	"/>
	<polygon fill="#E0A780" points="64.791,93.333 75.666,126.7 93.895,134 81.666,99.833 	"/>
	<polygon fill="#E8B491" points="93.895,134 92.586,162.449 135.166,149.263 	"/>
	<polygon fill="#E0A780" points="135.166,149.263 117.666,159.333 92.586,162.449 	"/>
	<polygon fill="#E0A780" points="47.977,137.369 24.935,168.089 32,199.333 42.396,166.141 	"/>
	<polygon fill="#E8B491" points="24.935,168.089 0,201.333 32,199.333 	"/>
	<polygon fill="#E8B491" points="75.666,179.833 42.396,192.833 69.166,217.421 	"/>
	<polygon fill="#FFC197" points="75.666,179.833 69.166,217.421 90.166,213.71 	"/>
	<polygon fill="#FFC197" points="52.357,175.214 42.396,192.833 75.666,179.833 	"/>
	<polygon fill="#C68960" points="132.395,262.458 159.916,248.763 155.787,267.264 	"/>
	<polygon fill="#C68960" points="159.916,248.763 184.666,235.263 155.787,267.264 	"/>
	<polygon fill="#E8B491" points="152.666,206.083 159.916,248.763 132.395,262.458 	"/>
	<polygon fill="#E0A780" points="152.666,206.083 159.916,248.763 184.666,235.263 	"/>
</g>
</svg>
