<?xml version="1.0" encoding="utf-8"?>
<!-- Generator: Adobe Illustrator 16.0.0, SVG Export Plug-In . SVG Version: 6.00 Build 0)  -->
<!DOCTYPE svg PUBLIC "-//W3C//DTD SVG 1.1//EN" "http://www.w3.org/Graphics/SVG/1.1/DTD/svg11.dtd">
<svg version="1.1" id="Layer_1" xmlns="http://www.w3.org/2000/svg" xmlns:xlink="http://www.w3.org/1999/xlink" x="0px" y="0px"
	 width="124.5px" height="245.876px" viewBox="0 0 124.5 245.876" enable-background="new 0 0 124.5 245.876" xml:space="preserve">
<g>
	<path d="M124.5,225.69c0,11.147-8.059,20.186-18,20.186H18c-9.941,0-18-9.038-18-20.186V20.186C0,9.038,8.059,0,18,0h88.5
		c9.941,0,18,9.038,18,20.186V225.69z"/>
	<rect x="8.875" y="29.688" fill="#424142" width="106.75" height="181.094"/>
	<circle fill="#A8A7A7" cx="62.25" cy="229.281" r="10"/>
	<circle fill="#A8A7A7" cx="62.25" cy="9" r="2.521"/>
	<circle fill="#A8A7A7" cx="42.002" cy="18.031" r="1.279"/>
	<path fill="#A8A7A7" d="M73.5,18.031c0,0.69-0.443,1.25-0.991,1.25H51.991c-0.548,0-0.991-0.56-0.991-1.25l0,0
		c0-0.69,0.443-1.25,0.991-1.25h20.518C73.057,16.781,73.5,17.341,73.5,18.031L73.5,18.031z"/>
</g>
</svg>
