<?xml version="1.0" encoding="utf-8"?>
<!-- Generator: Adobe Illustrator 16.0.0, SVG Export Plug-In . SVG Version: 6.00 Build 0)  -->
<!DOCTYPE svg PUBLIC "-//W3C//DTD SVG 1.1//EN" "http://www.w3.org/Graphics/SVG/1.1/DTD/svg11.dtd">
<svg version="1.1" id="Layer_1" xmlns="http://www.w3.org/2000/svg" xmlns:xlink="http://www.w3.org/1999/xlink" x="0px" y="0px"
	 width="453.002px" height="260.917px" viewBox="0 0 453.002 260.917" enable-background="new 0 0 453.002 260.917"
	 xml:space="preserve">
<g>
	<path fill="#030000" d="M429.167,232.667c0,5.523-4.477,10-10,10H33.835c-5.523,0-10-4.477-10-10V10c0-5.523,4.477-10,10-10
		h385.332c5.523,0,10,4.477,10,10V232.667z"/>
	<rect x="43.834" y="16.5" fill="#A29F9F" width="365.334" height="209.668"/>
	<polygon fill="#AEAEAD" points="434.655,260.917 16.347,260.917 0,254.25 453.002,254.25 	"/>
	<g>
		<defs>
			<rect id="XMLID_1_" x="0.167" y="242.584" width="452.667" height="11.498"/>
		</defs>
		<use xlink:href="#XMLID_1_"  overflow="visible" fill="#DCDCDC"/>
		<clipPath id="XMLID_3_">
			<use xlink:href="#XMLID_1_"  overflow="visible"/>
		</clipPath>
		<path clip-path="url(#XMLID_3_)" fill="#AEAEAD" d="M260.001,241.793c0,2.977-2.799,5.39-6.25,6.39h-54.5
			c-3.451-1-6.25-3.413-6.25-6.39l0,0c0-2.977,2.799-5.391,6.25-5.391h54.5C257.202,236.403,260.001,238.817,260.001,241.793
			L260.001,241.793z"/>
	</g>
	<circle fill="#4C4B4C" cx="226.501" cy="8.801" r="1.781"/>
</g>
</svg>
